<?xml version="1.0" encoding="utf-8"?>
<!-- Generator: Adobe Illustrator 16.0.0, SVG Export Plug-In . SVG Version: 6.00 Build 0)  -->
<!DOCTYPE svg PUBLIC "-//W3C//DTD SVG 1.1//EN" "http://www.w3.org/Graphics/SVG/1.1/DTD/svg11.dtd">
<svg version="1.1" id="Layer_1" xmlns="http://www.w3.org/2000/svg" xmlns:xlink="http://www.w3.org/1999/xlink" x="0px" y="0px"
	 width="317.48px" height="103.181px" viewBox="0 0 317.48 103.181" enable-background="new 0 0 317.48 103.181"
	 xml:space="preserve">
<g>
	<path d="M45.354,32.404h11.207l9.135,14.829l9.132-14.829h11.217v38.312H75.483V48.711l-9.787,14.998h-0.213l-9.738-14.889v21.896
		H45.354V32.404z"/>
	<path d="M91.269,53.915v-21.51h10.777v21.289c0,5.532,2.781,8.164,7.049,8.164c4.267,0,7.057-2.522,7.057-7.882v-21.57h10.771
		V53.64c0,12.375-7.055,17.793-17.936,17.793S91.269,65.905,91.269,53.915z"/>
	<path d="M129.244,65.029l5.906-7.065c3.773,3.015,7.988,4.596,12.42,4.596c2.841,0,4.371-0.983,4.371-2.622v-0.109
		c0-1.586-1.257-2.466-6.459-3.667c-8.141-1.864-14.432-4.167-14.432-12.05v-0.104c0-7.116,5.63-12.259,14.82-12.259
		c6.509,0,11.594,1.752,15.75,5.089l-5.304,7.499c-3.5-2.468-7.326-3.775-10.72-3.775c-2.57,0-3.83,1.088-3.83,2.466v0.106
		c0,1.743,1.316,2.521,6.619,3.719c8.8,1.92,14.271,4.761,14.271,11.929v0.109c0,7.837-6.177,12.484-15.474,12.484
		C140.401,71.374,133.951,69.241,129.244,65.029z"/>
	<path d="M166.948,32.404h10.664v38.312h-10.664V32.404z"/>
	<path d="M183.536,32.404h10.604v15.542l13.182-15.542h12.579l-14.495,16.475l14.987,21.837h-12.744l-9.621-14.229l-3.888,4.323
		v9.906h-10.604V32.404z"/>
	<path d="M222.388,32.404h10.607v15.542l13.182-15.542h12.576l-14.492,16.475l14.982,21.837H246.5l-9.619-14.229l-3.886,4.323v9.906
		h-10.607V32.404z"/>
	<path d="M261.465,32.404h10.661v38.312h-10.661V32.404z"/>
</g>
</svg>
